<svg width="1654" height="999" xmlns="http://www.w3.org/2000/svg" xmlns:xlink="http://www.w3.org/1999/xlink" overflow="hidden"><defs><clipPath id="clip0"><rect x="2420" y="834" width="1654" height="999"/></clipPath><clipPath id="clip1"><rect x="2422" y="838" width="1650" height="990"/></clipPath><clipPath id="clip2"><rect x="2422" y="838" width="1650" height="990"/></clipPath><clipPath id="clip3"><rect x="2422" y="838" width="1650" height="990"/></clipPath><clipPath id="clip4"><rect x="2422" y="838" width="1650" height="990"/></clipPath><clipPath id="clip5"><rect x="2695" y="895" width="1274" height="696"/></clipPath><clipPath id="clip6"><rect x="2422" y="838" width="1650" height="990"/></clipPath><clipPath id="clip7"><rect x="2422" y="838" width="1650" height="990"/></clipPath><clipPath id="clip8"><rect x="2422" y="838" width="1650" height="990"/></clipPath><clipPath id="clip9"><rect x="2422" y="838" width="1650" height="990"/></clipPath><clipPath id="clip10"><rect x="2422" y="838" width="1650" height="990"/></clipPath><clipPath id="clip11"><rect x="2422" y="838" width="1650" height="990"/></clipPath><clipPath id="clip12"><rect x="2422" y="838" width="1650" height="990"/></clipPath><clipPath id="clip13"><rect x="2422" y="838" width="1650" height="990"/></clipPath><clipPath id="clip14"><rect x="2422" y="838" width="1650" height="990"/></clipPath><clipPath id="clip15"><rect x="2422" y="838" width="1650" height="990"/></clipPath><clipPath id="clip16"><rect x="2422" y="838" width="1650" height="990"/></clipPath><clipPath id="clip17"><rect x="2422" y="838" width="1650" height="990"/></clipPath><clipPath id="clip18"><rect x="2422" y="838" width="1650" height="990"/></clipPath><clipPath id="clip19"><rect x="2422" y="838" width="1650" height="990"/></clipPath><clipPath id="clip20"><rect x="2422" y="838" width="1650" height="990"/></clipPath><clipPath id="clip21"><rect x="2422" y="838" width="1650" height="990"/></clipPath><clipPath id="clip22"><rect x="2422" y="838" width="1650" height="990"/></clipPath><clipPath id="clip23"><rect x="2422" y="838" width="1650" height="990"/></clipPath><clipPath id="clip24"><rect x="2422" y="838" width="1650" height="990"/></clipPath><clipPath id="clip25"><rect x="2422" y="838" width="1650" height="990"/></clipPath><clipPath id="clip26"><rect x="2422" y="838" width="1650" height="990"/></clipPath></defs><g clip-path="url(#clip0)" transform="translate(-2420 -834)"><rect x="2422" y="839" width="1650" height="990" fill="#FFFFFF" fill-opacity="1"/><g clip-path="url(#clip1)"><path d="M2695.5 1519.55 3966.5 1519.55M2695.5 1449.55 3966.5 1449.55M2695.5 1380.55 3966.5 1380.55M2695.5 1311.54 3966.5 1311.54M2695.5 1241.54 3966.5 1241.54M2695.5 1172.54 3966.5 1172.54M2695.5 1103.54 3966.5 1103.54M2695.5 1033.53 3966.5 1033.53M2695.5 964.532 3966.5 964.532M2695.5 895.5 3966.5 895.5" stroke="#D9D9D9" stroke-width="3.4375" stroke-linecap="butt" stroke-linejoin="round" stroke-miterlimit="10" stroke-opacity="1" fill="none" fill-rule="nonzero"/></g><g clip-path="url(#clip2)"><path d="M2890.59 895.5 2890.59 1588.5M3086.6 895.5 3086.6 1588.5M3281.61 895.5 3281.61 1588.5M3477.61 895.5 3477.61 1588.5M3672.62 895.5 3672.62 1588.5M3868.5 895.5 3868.5 1588.5" stroke="#D9D9D9" stroke-width="3.4375" stroke-linecap="butt" stroke-linejoin="round" stroke-miterlimit="10" stroke-opacity="1" fill="none" fill-rule="nonzero"/></g><g clip-path="url(#clip3)"><path d="M0 0 0.000360892 693" stroke="#BFBFBF" stroke-width="3.4375" stroke-linecap="butt" stroke-linejoin="round" stroke-miterlimit="10" stroke-opacity="1" fill="none" fill-rule="evenodd" transform="matrix(1 0 0 -1 2695.5 1588.5)"/></g><g clip-path="url(#clip4)"><path d="M2695.5 1588.5 3966.5 1588.5" stroke="#BFBFBF" stroke-width="3.4375" stroke-linecap="butt" stroke-linejoin="round" stroke-miterlimit="10" stroke-opacity="1" fill="none" fill-rule="evenodd"/></g><g clip-path="url(#clip5)"><path d="M3966.5 1344.5 3868.63 1342.54 3770.62 1314.54 3672.62 1285.54 3574.62 1240.54 3477.61 1219.54 3379.61 1211.54 3281.61 1203.54 3183.6 1100.54 3086.6 1080.54 2988.6 1076.54 2890.59 1030.53 2792.59 973.5 2695.5 987.533" stroke="#4472C4" stroke-width="6.875" stroke-linecap="round" stroke-linejoin="round" stroke-miterlimit="10" stroke-opacity="1" fill="none" fill-rule="nonzero"/></g><g clip-path="url(#clip6)"><path d="M3977.79 1344.25C3977.79 1350.32 3972.87 1355.25 3966.79 1355.25 3960.72 1355.25 3955.79 1350.32 3955.79 1344.25 3955.79 1338.17 3960.72 1333.25 3966.79 1333.25 3972.87 1333.25 3977.79 1338.17 3977.79 1344.25Z" stroke="#4472C4" stroke-width="3.4375" stroke-linecap="butt" stroke-linejoin="round" stroke-miterlimit="10" stroke-opacity="1" fill="#4472C4" fill-rule="nonzero" fill-opacity="1"/><path d="M3879.79 1342.25C3879.79 1348.32 3874.87 1353.25 3868.79 1353.25 3862.72 1353.25 3857.79 1348.32 3857.79 1342.25 3857.79 1336.17 3862.72 1331.25 3868.79 1331.25 3874.87 1331.25 3879.79 1336.17 3879.79 1342.25Z" stroke="#4472C4" stroke-width="3.4375" stroke-linecap="butt" stroke-linejoin="round" stroke-miterlimit="10" stroke-opacity="1" fill="#4472C4" fill-rule="nonzero" fill-opacity="1"/><path d="M3781.79 1314.25C3781.79 1320.32 3776.87 1325.25 3770.79 1325.25 3764.72 1325.25 3759.79 1320.32 3759.79 1314.25 3759.79 1308.17 3764.72 1303.25 3770.79 1303.25 3776.87 1303.25 3781.79 1308.17 3781.79 1314.25Z" stroke="#4472C4" stroke-width="3.4375" stroke-linecap="butt" stroke-linejoin="round" stroke-miterlimit="10" stroke-opacity="1" fill="#4472C4" fill-rule="nonzero" fill-opacity="1"/><path d="M3683.79 1285.25C3683.79 1291.32 3678.87 1296.25 3672.79 1296.25 3666.72 1296.25 3661.79 1291.32 3661.79 1285.25 3661.79 1279.17 3666.72 1274.25 3672.79 1274.25 3678.87 1274.25 3683.79 1279.17 3683.79 1285.25Z" stroke="#4472C4" stroke-width="3.4375" stroke-linecap="butt" stroke-linejoin="round" stroke-miterlimit="10" stroke-opacity="1" fill="#4472C4" fill-rule="nonzero" fill-opacity="1"/><path d="M3586.79 1240.25C3586.79 1246.32 3581.87 1251.25 3575.79 1251.25 3569.72 1251.25 3564.79 1246.32 3564.79 1240.25 3564.79 1234.17 3569.72 1229.25 3575.79 1229.25 3581.87 1229.25 3586.79 1234.17 3586.79 1240.25Z" stroke="#4472C4" stroke-width="3.4375" stroke-linecap="butt" stroke-linejoin="round" stroke-miterlimit="10" stroke-opacity="1" fill="#4472C4" fill-rule="nonzero" fill-opacity="1"/><path d="M3488.79 1219.25C3488.79 1225.32 3483.87 1230.25 3477.79 1230.25 3471.72 1230.25 3466.79 1225.32 3466.79 1219.25 3466.79 1213.17 3471.72 1208.25 3477.79 1208.25 3483.87 1208.25 3488.79 1213.17 3488.79 1219.25Z" stroke="#4472C4" stroke-width="3.4375" stroke-linecap="butt" stroke-linejoin="round" stroke-miterlimit="10" stroke-opacity="1" fill="#4472C4" fill-rule="nonzero" fill-opacity="1"/><path d="M3390.79 1211.25C3390.79 1217.32 3385.87 1222.25 3379.79 1222.25 3373.72 1222.25 3368.79 1217.32 3368.79 1211.25 3368.79 1205.17 3373.72 1200.25 3379.79 1200.25 3385.87 1200.25 3390.79 1205.17 3390.79 1211.25Z" stroke="#4472C4" stroke-width="3.4375" stroke-linecap="butt" stroke-linejoin="round" stroke-miterlimit="10" stroke-opacity="1" fill="#4472C4" fill-rule="nonzero" fill-opacity="1"/><path d="M3292.79 1203.25C3292.79 1209.32 3287.87 1214.25 3281.79 1214.25 3275.72 1214.25 3270.79 1209.32 3270.79 1203.25 3270.79 1197.17 3275.72 1192.25 3281.79 1192.25 3287.87 1192.25 3292.79 1197.17 3292.79 1203.25Z" stroke="#4472C4" stroke-width="3.4375" stroke-linecap="butt" stroke-linejoin="round" stroke-miterlimit="10" stroke-opacity="1" fill="#4472C4" fill-rule="nonzero" fill-opacity="1"/><path d="M3194.79 1100.25C3194.79 1106.32 3189.87 1111.25 3183.79 1111.25 3177.72 1111.25 3172.79 1106.32 3172.79 1100.25 3172.79 1094.17 3177.72 1089.25 3183.79 1089.25 3189.87 1089.25 3194.79 1094.17 3194.79 1100.25Z" stroke="#4472C4" stroke-width="3.4375" stroke-linecap="butt" stroke-linejoin="round" stroke-miterlimit="10" stroke-opacity="1" fill="#4472C4" fill-rule="nonzero" fill-opacity="1"/><path d="M3097.79 1080.25C3097.79 1086.32 3092.87 1091.25 3086.79 1091.25 3080.72 1091.25 3075.79 1086.32 3075.79 1080.25 3075.79 1074.17 3080.72 1069.25 3086.79 1069.25 3092.87 1069.25 3097.79 1074.17 3097.79 1080.25Z" stroke="#4472C4" stroke-width="3.4375" stroke-linecap="butt" stroke-linejoin="round" stroke-miterlimit="10" stroke-opacity="1" fill="#4472C4" fill-rule="nonzero" fill-opacity="1"/><path d="M2999.79 1076.25C2999.79 1082.32 2994.87 1087.25 2988.79 1087.25 2982.72 1087.25 2977.79 1082.32 2977.79 1076.25 2977.79 1070.17 2982.72 1065.25 2988.79 1065.25 2994.87 1065.25 2999.79 1070.17 2999.79 1076.25Z" stroke="#4472C4" stroke-width="3.4375" stroke-linecap="butt" stroke-linejoin="round" stroke-miterlimit="10" stroke-opacity="1" fill="#4472C4" fill-rule="nonzero" fill-opacity="1"/><path d="M2901.79 1030.25C2901.79 1036.32 2896.87 1041.25 2890.79 1041.25 2884.72 1041.25 2879.79 1036.32 2879.79 1030.25 2879.79 1024.17 2884.72 1019.25 2890.79 1019.25 2896.87 1019.25 2901.79 1024.17 2901.79 1030.25Z" stroke="#4472C4" stroke-width="3.4375" stroke-linecap="butt" stroke-linejoin="round" stroke-miterlimit="10" stroke-opacity="1" fill="#4472C4" fill-rule="nonzero" fill-opacity="1"/><path d="M2803.79 973.25C2803.79 979.324 2798.87 984.249 2792.79 984.249 2786.72 984.249 2781.79 979.324 2781.79 973.25 2781.79 967.175 2786.72 962.25 2792.79 962.25 2798.87 962.25 2803.79 967.175 2803.79 973.25Z" stroke="#4472C4" stroke-width="3.4375" stroke-linecap="butt" stroke-linejoin="round" stroke-miterlimit="10" stroke-opacity="1" fill="#4472C4" fill-rule="nonzero" fill-opacity="1"/><path d="M2706.79 987.25C2706.79 993.325 2701.87 998.249 2695.79 998.249 2689.72 998.249 2684.79 993.325 2684.79 987.25 2684.79 981.175 2689.72 976.25 2695.79 976.25 2701.87 976.25 2706.79 981.175 2706.79 987.25Z" stroke="#4472C4" stroke-width="3.4375" stroke-linecap="butt" stroke-linejoin="round" stroke-miterlimit="10" stroke-opacity="1" fill="#4472C4" fill-rule="nonzero" fill-opacity="1"/></g><g clip-path="url(#clip7)"><text fill="#595959" fill-opacity="1" font-family="Calibri,Calibri_MSFontService,sans-serif" font-style="normal" font-variant="normal" font-weight="400" font-stretch="normal" font-size="55" text-anchor="start" direction="ltr" writing-mode="lr-tb" unicode-bidi="normal" text-decoration="none" transform="matrix(1 0 0 1 2616.21 1603)">0</text></g><g clip-path="url(#clip8)"><text fill="#595959" fill-opacity="1" font-family="Calibri,Calibri_MSFontService,sans-serif" font-style="normal" font-variant="normal" font-weight="400" font-stretch="normal" font-size="55" text-anchor="start" direction="ltr" writing-mode="lr-tb" unicode-bidi="normal" text-decoration="none" transform="matrix(1 0 0 1 2588.35 1534)">10</text></g><g clip-path="url(#clip9)"><text fill="#595959" fill-opacity="1" font-family="Calibri,Calibri_MSFontService,sans-serif" font-style="normal" font-variant="normal" font-weight="400" font-stretch="normal" font-size="55" text-anchor="start" direction="ltr" writing-mode="lr-tb" unicode-bidi="normal" text-decoration="none" transform="matrix(1 0 0 1 2588.35 1465)">20</text></g><g clip-path="url(#clip10)"><text fill="#595959" fill-opacity="1" font-family="Calibri,Calibri_MSFontService,sans-serif" font-style="normal" font-variant="normal" font-weight="400" font-stretch="normal" font-size="55" text-anchor="start" direction="ltr" writing-mode="lr-tb" unicode-bidi="normal" text-decoration="none" transform="matrix(1 0 0 1 2588.35 1395)">30</text></g><g clip-path="url(#clip11)"><text fill="#595959" fill-opacity="1" font-family="Calibri,Calibri_MSFontService,sans-serif" font-style="normal" font-variant="normal" font-weight="400" font-stretch="normal" font-size="55" text-anchor="start" direction="ltr" writing-mode="lr-tb" unicode-bidi="normal" text-decoration="none" transform="matrix(1 0 0 1 2588.35 1326)">40</text></g><g clip-path="url(#clip12)"><text fill="#595959" fill-opacity="1" font-family="Calibri,Calibri_MSFontService,sans-serif" font-style="normal" font-variant="normal" font-weight="400" font-stretch="normal" font-size="55" text-anchor="start" direction="ltr" writing-mode="lr-tb" unicode-bidi="normal" text-decoration="none" transform="matrix(1 0 0 1 2588.35 1257)">50</text></g><g clip-path="url(#clip13)"><text fill="#595959" fill-opacity="1" font-family="Calibri,Calibri_MSFontService,sans-serif" font-style="normal" font-variant="normal" font-weight="400" font-stretch="normal" font-size="55" text-anchor="start" direction="ltr" writing-mode="lr-tb" unicode-bidi="normal" text-decoration="none" transform="matrix(1 0 0 1 2588.35 1187)">60</text></g><g clip-path="url(#clip14)"><text fill="#595959" fill-opacity="1" font-family="Calibri,Calibri_MSFontService,sans-serif" font-style="normal" font-variant="normal" font-weight="400" font-stretch="normal" font-size="55" text-anchor="start" direction="ltr" writing-mode="lr-tb" unicode-bidi="normal" text-decoration="none" transform="matrix(1 0 0 1 2588.35 1118)">70</text></g><g clip-path="url(#clip15)"><text fill="#595959" fill-opacity="1" font-family="Calibri,Calibri_MSFontService,sans-serif" font-style="normal" font-variant="normal" font-weight="400" font-stretch="normal" font-size="55" text-anchor="start" direction="ltr" writing-mode="lr-tb" unicode-bidi="normal" text-decoration="none" transform="matrix(1 0 0 1 2588.35 1049)">80</text></g><g clip-path="url(#clip16)"><text fill="#595959" fill-opacity="1" font-family="Calibri,Calibri_MSFontService,sans-serif" font-style="normal" font-variant="normal" font-weight="400" font-stretch="normal" font-size="55" text-anchor="start" direction="ltr" writing-mode="lr-tb" unicode-bidi="normal" text-decoration="none" transform="matrix(1 0 0 1 2588.35 979)">90</text></g><g clip-path="url(#clip17)"><text fill="#595959" fill-opacity="1" font-family="Calibri,Calibri_MSFontService,sans-serif" font-style="normal" font-variant="normal" font-weight="400" font-stretch="normal" font-size="55" text-anchor="start" direction="ltr" writing-mode="lr-tb" unicode-bidi="normal" text-decoration="none" transform="matrix(1 0 0 1 2560.48 910)">100</text></g><g clip-path="url(#clip18)"><text fill="#595959" fill-opacity="1" font-family="Calibri,Calibri_MSFontService,sans-serif" font-style="normal" font-variant="normal" font-weight="400" font-stretch="normal" font-size="55" text-anchor="start" direction="ltr" writing-mode="lr-tb" unicode-bidi="normal" text-decoration="none" transform="matrix(1 0 0 1 2681.17 1675)">1</text></g><g clip-path="url(#clip19)"><text fill="#595959" fill-opacity="1" font-family="Calibri,Calibri_MSFontService,sans-serif" font-style="normal" font-variant="normal" font-weight="400" font-stretch="normal" font-size="55" text-anchor="start" direction="ltr" writing-mode="lr-tb" unicode-bidi="normal" text-decoration="none" transform="matrix(1 0 0 1 2876.72 1675)">4</text></g><g clip-path="url(#clip20)"><text fill="#595959" fill-opacity="1" font-family="Calibri,Calibri_MSFontService,sans-serif" font-style="normal" font-variant="normal" font-weight="400" font-stretch="normal" font-size="55" text-anchor="start" direction="ltr" writing-mode="lr-tb" unicode-bidi="normal" text-decoration="none" transform="matrix(1 0 0 1 3058.33 1675)">16</text></g><g clip-path="url(#clip21)"><text fill="#595959" fill-opacity="1" font-family="Calibri,Calibri_MSFontService,sans-serif" font-style="normal" font-variant="normal" font-weight="400" font-stretch="normal" font-size="55" text-anchor="start" direction="ltr" writing-mode="lr-tb" unicode-bidi="normal" text-decoration="none" transform="matrix(1 0 0 1 3253.87 1675)">64</text></g><g clip-path="url(#clip22)"><text fill="#595959" fill-opacity="1" font-family="Calibri,Calibri_MSFontService,sans-serif" font-style="normal" font-variant="normal" font-weight="400" font-stretch="normal" font-size="55" text-anchor="start" direction="ltr" writing-mode="lr-tb" unicode-bidi="normal" text-decoration="none" transform="matrix(1 0 0 1 3435.48 1675)">256</text></g><g clip-path="url(#clip23)"><text fill="#595959" fill-opacity="1" font-family="Calibri,Calibri_MSFontService,sans-serif" font-style="normal" font-variant="normal" font-weight="400" font-stretch="normal" font-size="55" text-anchor="start" direction="ltr" writing-mode="lr-tb" unicode-bidi="normal" text-decoration="none" transform="matrix(1 0 0 1 3617.09 1675)">1024</text></g><g clip-path="url(#clip24)"><text fill="#595959" fill-opacity="1" font-family="Calibri,Calibri_MSFontService,sans-serif" font-style="normal" font-variant="normal" font-weight="400" font-stretch="normal" font-size="55" text-anchor="start" direction="ltr" writing-mode="lr-tb" unicode-bidi="normal" text-decoration="none" transform="matrix(1 0 0 1 3812.64 1675)">4096</text></g><g clip-path="url(#clip25)"><text fill="#595959" fill-opacity="1" font-family="Calibri,Calibri_MSFontService,sans-serif" font-style="normal" font-variant="normal" font-weight="400" font-stretch="normal" font-size="55" text-anchor="start" direction="ltr" writing-mode="lr-tb" unicode-bidi="normal" text-decoration="none" transform="matrix(6.12323e-17 -1 1 6.12323e-17 2531.58 1484)">Performance (ns/day)</text></g><g clip-path="url(#clip26)"><text fill="#595959" fill-opacity="1" font-family="Calibri,Calibri_MSFontService,sans-serif" font-style="normal" font-variant="normal" font-weight="400" font-stretch="normal" font-size="55" text-anchor="start" direction="ltr" writing-mode="lr-tb" unicode-bidi="normal" text-decoration="none" transform="matrix(1 0 0 1 3149.42 1756)">number of CPUs</text></g><rect x="2422.5" y="839.5" width="1650" height="990" stroke="#D9D9D9" stroke-width="3.4375" stroke-linecap="butt" stroke-linejoin="round" stroke-miterlimit="10" stroke-opacity="1" fill="none"/></g></svg>