<svg width="1655" height="999" xmlns="http://www.w3.org/2000/svg" xmlns:xlink="http://www.w3.org/1999/xlink" overflow="hidden"><defs><clipPath id="clip0"><rect x="994" y="1498" width="1655" height="999"/></clipPath><clipPath id="clip1"><rect x="996" y="1503" width="1650" height="990"/></clipPath><clipPath id="clip2"><rect x="996" y="1503" width="1650" height="990"/></clipPath><clipPath id="clip3"><rect x="996" y="1503" width="1650" height="990"/></clipPath><clipPath id="clip4"><rect x="996" y="1503" width="1650" height="990"/></clipPath><clipPath id="clip5"><rect x="1224" y="1553" width="1354" height="740"/></clipPath><clipPath id="clip6"><rect x="996" y="1503" width="1650" height="990"/></clipPath><clipPath id="clip7"><rect x="996" y="1503" width="1650" height="990"/></clipPath><clipPath id="clip8"><rect x="996" y="1503" width="1650" height="990"/></clipPath><clipPath id="clip9"><rect x="996" y="1503" width="1650" height="990"/></clipPath><clipPath id="clip10"><rect x="996" y="1503" width="1650" height="990"/></clipPath><clipPath id="clip11"><rect x="996" y="1503" width="1650" height="990"/></clipPath><clipPath id="clip12"><rect x="996" y="1503" width="1650" height="990"/></clipPath><clipPath id="clip13"><rect x="996" y="1503" width="1650" height="990"/></clipPath><clipPath id="clip14"><rect x="996" y="1503" width="1650" height="990"/></clipPath><clipPath id="clip15"><rect x="996" y="1503" width="1650" height="990"/></clipPath><clipPath id="clip16"><rect x="996" y="1503" width="1650" height="990"/></clipPath><clipPath id="clip17"><rect x="996" y="1503" width="1650" height="990"/></clipPath><clipPath id="clip18"><rect x="996" y="1503" width="1650" height="990"/></clipPath><clipPath id="clip19"><rect x="996" y="1503" width="1650" height="990"/></clipPath><clipPath id="clip20"><rect x="996" y="1503" width="1650" height="990"/></clipPath><clipPath id="clip21"><rect x="996" y="1503" width="1650" height="990"/></clipPath><clipPath id="clip22"><rect x="996" y="1503" width="1650" height="990"/></clipPath></defs><g clip-path="url(#clip0)" transform="translate(-994 -1498)"><rect x="997" y="1503" width="1650" height="990" fill="#FFFFFF" fill-opacity="1"/><g clip-path="url(#clip1)"><path d="M1224.5 2142.57 2575.5 2142.57M1224.5 1995.57 2575.5 1995.57M1224.5 1848.56 2575.5 1848.56M1224.5 1700.56 2575.5 1700.56M1224.5 1553.5 2575.5 1553.5" stroke="#D9D9D9" stroke-width="3.4375" stroke-linecap="butt" stroke-linejoin="round" stroke-miterlimit="10" stroke-opacity="1" fill="none" fill-rule="nonzero"/></g><g clip-path="url(#clip2)"><path d="M1417.55 1553.5 1417.55 2289.5M1610.55 1553.5 1610.55 2289.5M1803.56 1553.5 1803.56 2289.5M1996.57 1553.5 1996.57 2289.5M2189.57 1553.5 2189.57 2289.5M2382.58 1553.5 2382.58 2289.5M2575.5 1553.5 2575.5 2289.5" stroke="#D9D9D9" stroke-width="3.4375" stroke-linecap="butt" stroke-linejoin="round" stroke-miterlimit="10" stroke-opacity="1" fill="none" fill-rule="nonzero"/></g><g clip-path="url(#clip3)"><path d="M0 0 0.000360892 736" stroke="#BFBFBF" stroke-width="3.4375" stroke-linecap="butt" stroke-linejoin="round" stroke-miterlimit="10" stroke-opacity="1" fill="none" fill-rule="evenodd" transform="matrix(1 0 0 -1 1224.5 2289.5)"/></g><g clip-path="url(#clip4)"><path d="M1224.5 2289.5 2575.5 2289.5" stroke="#BFBFBF" stroke-width="3.4375" stroke-linecap="butt" stroke-linejoin="round" stroke-miterlimit="10" stroke-opacity="1" fill="none" fill-rule="evenodd"/></g><g clip-path="url(#clip5)"><path d="M1263.5 2235.5 1301.54 2185.57 1379.55 2107.57 1533.55 1957.56 1842.56 1753.56 2459.5 1672.5" stroke="#4472C4" stroke-width="6.875" stroke-linecap="round" stroke-linejoin="round" stroke-miterlimit="10" stroke-opacity="1" fill="none" fill-rule="nonzero"/></g><g clip-path="url(#clip6)"><path d="M1274.37 2235.83C1274.37 2241.91 1269.45 2246.83 1263.38 2246.83 1257.3 2246.83 1252.38 2241.91 1252.38 2235.83 1252.38 2229.76 1257.3 2224.83 1263.38 2224.83 1269.45 2224.83 1274.37 2229.76 1274.37 2235.83Z" stroke="#4472C4" stroke-width="3.4375" stroke-linecap="butt" stroke-linejoin="round" stroke-miterlimit="10" stroke-opacity="1" fill="#4472C4" fill-rule="nonzero" fill-opacity="1"/><path d="M1313.37 2185.83C1313.37 2191.91 1308.45 2196.83 1302.37 2196.83 1296.3 2196.83 1291.38 2191.91 1291.38 2185.83 1291.38 2179.76 1296.3 2174.83 1302.37 2174.83 1308.45 2174.83 1313.37 2179.76 1313.37 2185.83Z" stroke="#4472C4" stroke-width="3.4375" stroke-linecap="butt" stroke-linejoin="round" stroke-miterlimit="10" stroke-opacity="1" fill="#4472C4" fill-rule="nonzero" fill-opacity="1"/><path d="M1390.37 2107.83C1390.37 2113.91 1385.45 2118.83 1379.37 2118.83 1373.3 2118.83 1368.38 2113.91 1368.38 2107.83 1368.38 2101.76 1373.3 2096.83 1379.37 2096.83 1385.45 2096.83 1390.37 2101.76 1390.37 2107.83Z" stroke="#4472C4" stroke-width="3.4375" stroke-linecap="butt" stroke-linejoin="round" stroke-miterlimit="10" stroke-opacity="1" fill="#4472C4" fill-rule="nonzero" fill-opacity="1"/><path d="M1544.37 1957.83C1544.37 1963.91 1539.45 1968.83 1533.37 1968.83 1527.3 1968.83 1522.38 1963.91 1522.38 1957.83 1522.38 1951.76 1527.3 1946.83 1533.37 1946.83 1539.45 1946.83 1544.37 1951.76 1544.37 1957.83Z" stroke="#4472C4" stroke-width="3.4375" stroke-linecap="butt" stroke-linejoin="round" stroke-miterlimit="10" stroke-opacity="1" fill="#4472C4" fill-rule="nonzero" fill-opacity="1"/><path d="M1853.37 1753.83C1853.37 1759.91 1848.45 1764.83 1842.37 1764.83 1836.3 1764.83 1831.38 1759.91 1831.38 1753.83 1831.38 1747.76 1836.3 1742.83 1842.37 1742.83 1848.45 1742.83 1853.37 1747.76 1853.37 1753.83Z" stroke="#4472C4" stroke-width="3.4375" stroke-linecap="butt" stroke-linejoin="round" stroke-miterlimit="10" stroke-opacity="1" fill="#4472C4" fill-rule="nonzero" fill-opacity="1"/><path d="M2470.37 1672.83C2470.37 1678.91 2465.45 1683.83 2459.37 1683.83 2453.3 1683.83 2448.38 1678.91 2448.38 1672.83 2448.38 1666.76 2453.3 1661.83 2459.37 1661.83 2465.45 1661.83 2470.37 1666.76 2470.37 1672.83Z" stroke="#4472C4" stroke-width="3.4375" stroke-linecap="butt" stroke-linejoin="round" stroke-miterlimit="10" stroke-opacity="1" fill="#4472C4" fill-rule="nonzero" fill-opacity="1"/></g><g clip-path="url(#clip7)"><text fill="#595959" fill-opacity="1" font-family="Calibri,Calibri_MSFontService,sans-serif" font-style="normal" font-variant="normal" font-weight="400" font-stretch="normal" font-size="41" text-anchor="start" direction="ltr" writing-mode="lr-tb" unicode-bidi="normal" text-decoration="none" transform="matrix(1 0 0 1 1165.66 2300)">0</text></g><g clip-path="url(#clip8)"><text fill="#595959" fill-opacity="1" font-family="Calibri,Calibri_MSFontService,sans-serif" font-style="normal" font-variant="normal" font-weight="400" font-stretch="normal" font-size="41" text-anchor="start" direction="ltr" writing-mode="lr-tb" unicode-bidi="normal" text-decoration="none" transform="matrix(1 0 0 1 1144.76 2153)">50</text></g><g clip-path="url(#clip9)"><text fill="#595959" fill-opacity="1" font-family="Calibri,Calibri_MSFontService,sans-serif" font-style="normal" font-variant="normal" font-weight="400" font-stretch="normal" font-size="41" text-anchor="start" direction="ltr" writing-mode="lr-tb" unicode-bidi="normal" text-decoration="none" transform="matrix(1 0 0 1 1123.86 2005)">100</text></g><g clip-path="url(#clip10)"><text fill="#595959" fill-opacity="1" font-family="Calibri,Calibri_MSFontService,sans-serif" font-style="normal" font-variant="normal" font-weight="400" font-stretch="normal" font-size="41" text-anchor="start" direction="ltr" writing-mode="lr-tb" unicode-bidi="normal" text-decoration="none" transform="matrix(1 0 0 1 1123.86 1858)">150</text></g><g clip-path="url(#clip11)"><text fill="#595959" fill-opacity="1" font-family="Calibri,Calibri_MSFontService,sans-serif" font-style="normal" font-variant="normal" font-weight="400" font-stretch="normal" font-size="41" text-anchor="start" direction="ltr" writing-mode="lr-tb" unicode-bidi="normal" text-decoration="none" transform="matrix(1 0 0 1 1123.86 1711)">200</text></g><g clip-path="url(#clip12)"><text fill="#595959" fill-opacity="1" font-family="Calibri,Calibri_MSFontService,sans-serif" font-style="normal" font-variant="normal" font-weight="400" font-stretch="normal" font-size="41" text-anchor="start" direction="ltr" writing-mode="lr-tb" unicode-bidi="normal" text-decoration="none" transform="matrix(1 0 0 1 1123.86 1564)">250</text></g><g clip-path="url(#clip13)"><text fill="#595959" fill-opacity="1" font-family="Calibri,Calibri_MSFontService,sans-serif" font-style="normal" font-variant="normal" font-weight="400" font-stretch="normal" font-size="41" text-anchor="start" direction="ltr" writing-mode="lr-tb" unicode-bidi="normal" text-decoration="none" transform="matrix(1 0 0 1 1214.37 2355)">0</text></g><g clip-path="url(#clip14)"><text fill="#595959" fill-opacity="1" font-family="Calibri,Calibri_MSFontService,sans-serif" font-style="normal" font-variant="normal" font-weight="400" font-stretch="normal" font-size="41" text-anchor="start" direction="ltr" writing-mode="lr-tb" unicode-bidi="normal" text-decoration="none" transform="matrix(1 0 0 1 1407.34 2355)">5</text></g><g clip-path="url(#clip15)"><text fill="#595959" fill-opacity="1" font-family="Calibri,Calibri_MSFontService,sans-serif" font-style="normal" font-variant="normal" font-weight="400" font-stretch="normal" font-size="41" text-anchor="start" direction="ltr" writing-mode="lr-tb" unicode-bidi="normal" text-decoration="none" transform="matrix(1 0 0 1 1589.85 2355)">10</text></g><g clip-path="url(#clip16)"><text fill="#595959" fill-opacity="1" font-family="Calibri,Calibri_MSFontService,sans-serif" font-style="normal" font-variant="normal" font-weight="400" font-stretch="normal" font-size="41" text-anchor="start" direction="ltr" writing-mode="lr-tb" unicode-bidi="normal" text-decoration="none" transform="matrix(1 0 0 1 1782.81 2355)">15</text></g><g clip-path="url(#clip17)"><text fill="#595959" fill-opacity="1" font-family="Calibri,Calibri_MSFontService,sans-serif" font-style="normal" font-variant="normal" font-weight="400" font-stretch="normal" font-size="41" text-anchor="start" direction="ltr" writing-mode="lr-tb" unicode-bidi="normal" text-decoration="none" transform="matrix(1 0 0 1 1975.77 2355)">20</text></g><g clip-path="url(#clip18)"><text fill="#595959" fill-opacity="1" font-family="Calibri,Calibri_MSFontService,sans-serif" font-style="normal" font-variant="normal" font-weight="400" font-stretch="normal" font-size="41" text-anchor="start" direction="ltr" writing-mode="lr-tb" unicode-bidi="normal" text-decoration="none" transform="matrix(1 0 0 1 2168.73 2355)">25</text></g><g clip-path="url(#clip19)"><text fill="#595959" fill-opacity="1" font-family="Calibri,Calibri_MSFontService,sans-serif" font-style="normal" font-variant="normal" font-weight="400" font-stretch="normal" font-size="41" text-anchor="start" direction="ltr" writing-mode="lr-tb" unicode-bidi="normal" text-decoration="none" transform="matrix(1 0 0 1 2361.7 2355)">30</text></g><g clip-path="url(#clip20)"><text fill="#595959" fill-opacity="1" font-family="Calibri,Calibri_MSFontService,sans-serif" font-style="normal" font-variant="normal" font-weight="400" font-stretch="normal" font-size="41" text-anchor="start" direction="ltr" writing-mode="lr-tb" unicode-bidi="normal" text-decoration="none" transform="matrix(1 0 0 1 2554.66 2355)">35</text></g><g clip-path="url(#clip21)"><text fill="#595959" fill-opacity="1" font-family="Calibri,Calibri_MSFontService,sans-serif" font-style="normal" font-variant="normal" font-weight="400" font-stretch="normal" font-size="46" text-anchor="start" direction="ltr" writing-mode="lr-tb" unicode-bidi="normal" text-decoration="none" transform="matrix(6.12323e-17 -1 1 6.12323e-17 1098.17 2125)">Performance (ns/day)</text></g><g clip-path="url(#clip22)"><text fill="#595959" fill-opacity="1" font-family="Calibri,Calibri_MSFontService,sans-serif" font-style="normal" font-variant="normal" font-weight="400" font-stretch="normal" font-size="46" text-anchor="start" direction="ltr" writing-mode="lr-tb" unicode-bidi="normal" text-decoration="none" transform="matrix(1 0 0 1 1732.52 2424)">Nodes (128 CPUS)</text></g><rect x="997.5" y="1503.5" width="1650" height="990" stroke="#D9D9D9" stroke-width="3.4375" stroke-linecap="butt" stroke-linejoin="round" stroke-miterlimit="10" stroke-opacity="1" fill="none"/></g></svg>